<?xml version="1.0" encoding="UTF-8"?><svg id="_レイヤー_1" xmlns="http://www.w3.org/2000/svg" viewBox="0 0 320.25 160.25"><defs><style>.cls-1{fill:#040000;}</style></defs><path class="cls-1" d="M50.79,63.35h6.37l9.43,27.74,9.37-27.74h6.32v32.8h-4.24v-19.36c0-.67,.01-1.78,.04-3.33,.03-1.55,.04-3.21,.04-4.98l-9.37,27.67h-4.4l-9.46-27.67v1.01c0,.8,.02,2.03,.07,3.67,.04,1.65,.07,2.85,.07,3.63v19.36h-4.24V63.35Z"/><path class="cls-1" d="M103.46,72.9c1.58,.8,2.79,1.83,3.62,3.09,.8,1.21,1.33,2.61,1.6,4.22,.24,1.1,.35,2.86,.35,5.27h-17.4c.07,2.43,.64,4.39,1.71,5.86,1.06,1.47,2.71,2.21,4.94,2.21,2.08,0,3.74-.7,4.99-2.09,.69-.81,1.19-1.74,1.48-2.8h3.95c-.1,.88-.45,1.86-1.04,2.94-.59,1.08-1.24,1.96-1.97,2.65-1.21,1.19-2.71,2-4.5,2.41-.96,.24-2.05,.36-3.26,.36-2.96,0-5.47-1.08-7.52-3.25-2.06-2.17-3.08-5.2-3.08-9.1s1.03-6.96,3.11-9.36c2.07-2.4,4.78-3.6,8.12-3.6,1.69,0,3.32,.4,4.9,1.19Zm1.44,9.39c-.16-1.74-.54-3.13-1.13-4.18-1.09-1.94-2.91-2.9-5.47-2.9-1.83,0-3.37,.67-4.61,2s-1.9,3.03-1.97,5.08h13.18Z"/><path class="cls-1" d="M128.18,72.98c.71,.45,1.52,1.23,2.42,2.35v-12.08h3.86v32.92h-3.62v-3.33c-.93,1.47-2.04,2.54-3.31,3.19-1.28,.66-2.74,.98-4.38,.98-2.65,0-4.95-1.12-6.9-3.36-1.94-2.24-2.91-5.22-2.91-8.94,0-3.48,.89-6.5,2.66-9.06,1.77-2.55,4.3-3.83,7.6-3.83,1.82,0,3.35,.39,4.58,1.16Zm-8.97,17.93c1.08,1.73,2.82,2.59,5.2,2.59,1.85,0,3.37-.8,4.57-2.4,1.19-1.6,1.79-3.9,1.79-6.89s-.61-5.26-1.84-6.71c-1.23-1.45-2.75-2.18-4.56-2.18-2.01,0-3.65,.77-4.9,2.32-1.25,1.55-1.88,3.83-1.88,6.83,0,2.56,.54,4.7,1.62,6.43Z"/><path class="cls-1" d="M140.71,63.35h4.09v4.56h-4.09v-4.56Zm0,9h4.09v23.81h-4.09v-23.81Z"/><path class="cls-1" d="M167.58,73.51c1.69,1.31,2.71,3.57,3.05,6.77h-3.91c-.24-1.47-.78-2.7-1.63-3.67-.85-.98-2.21-1.46-4.09-1.46-2.56,0-4.39,1.25-5.49,3.75-.71,1.62-1.07,3.62-1.07,6s.51,4.41,1.52,6.05c1.01,1.63,2.61,2.45,4.78,2.45,1.67,0,2.99-.51,3.96-1.52,.97-1.02,1.65-2.41,2.02-4.17h3.91c-.45,3.17-1.56,5.49-3.35,6.96-1.79,1.47-4.07,2.2-6.86,2.2-3.13,0-5.62-1.14-7.48-3.43-1.86-2.29-2.79-5.14-2.79-8.56,0-4.2,1.02-7.47,3.06-9.8,2.04-2.34,4.64-3.51,7.79-3.51,2.69,0,4.89,.66,6.58,1.97Z"/><path class="cls-1" d="M188.38,81.68c.92-.12,1.54-.5,1.85-1.16,.18-.36,.27-.87,.27-1.55,0-1.37-.49-2.37-1.46-2.99-.97-.62-2.37-.93-4.18-.93-2.1,0-3.58,.57-4.46,1.71-.49,.63-.81,1.56-.96,2.8h-3.75c.07-2.96,1.03-5.01,2.87-6.17,1.84-1.16,3.97-1.73,6.39-1.73,2.81,0,5.09,.54,6.85,1.61,1.74,1.07,2.61,2.74,2.61,5v13.78c0,.42,.09,.75,.26,1,.17,.25,.53,.38,1.08,.38,.18,0,.38-.01,.6-.03s.46-.06,.71-.1v2.97c-.62,.18-1.1,.29-1.43,.33-.33,.04-.77,.07-1.34,.07-1.38,0-2.39-.49-3.01-1.47-.33-.52-.56-1.26-.69-2.21-.82,1.07-1.99,2-3.53,2.79-1.53,.79-3.22,1.18-5.07,1.18-2.22,0-4.03-.67-5.44-2.02-1.41-1.35-2.11-3.03-2.11-5.05,0-2.21,.69-3.93,2.08-5.15,1.39-1.22,3.2-1.97,5.45-2.25l6.41-.8Zm-8.46,10.86c.85,.67,1.85,1,3.01,1,1.41,0,2.78-.33,4.11-.98,2.23-1.08,3.35-2.86,3.35-5.33v-3.23c-.49,.31-1.12,.58-1.89,.79-.77,.21-1.53,.36-2.27,.45l-2.43,.31c-1.46,.19-2.55,.5-3.29,.91-1.24,.7-1.86,1.81-1.86,3.34,0,1.16,.42,2.07,1.27,2.74Z"/><path class="cls-1" d="M202.02,63.35h4.02v32.8h-4.02V63.35Z"/><path class="cls-1" d="M224.01,63.35h5.02l11.91,32.8h-4.87l-3.42-9.83h-12.87l-3.56,9.83h-4.56l12.35-32.8Zm7.37,19.36l-5.05-14.49-5.25,14.49h10.3Z"/><path class="cls-1" d="M244.75,72.24h3.82v4.13c.31-.8,1.08-1.78,2.3-2.94,1.22-1.15,2.63-1.73,4.22-1.73,.07,0,.2,0,.38,.02,.18,.01,.48,.04,.92,.09v4.24c-.24-.04-.46-.07-.66-.09-.2-.01-.42-.02-.66-.02-2.02,0-3.58,.65-4.67,1.95-1.09,1.3-1.63,2.8-1.63,4.5v13.76h-4.02v-23.92Z"/><path class="cls-1" d="M263.41,65.56h4.07v6.68h3.82v3.28h-3.82v15.61c0,.83,.28,1.39,.85,1.68,.31,.16,.83,.25,1.56,.25,.19,0,.4,0,.62-.01,.22-.01,.48-.04,.78-.07v3.19c-.46,.13-.94,.23-1.44,.29-.5,.06-1.04,.09-1.62,.09-1.88,0-3.15-.48-3.82-1.44-.67-.96-1.01-2.21-1.01-3.74v-15.83h-3.24v-3.28h3.24v-6.68Z"/></svg>